<svg version="1.1" id="Layer_1" xmlns="http://www.w3.org/2000/svg" xmlns:xlink="http://www.w3.org/1999/xlink" x="0px" y="0px"
	 width="100%" viewBox="0 0 116 99" enable-background="new 0 0 116 99" xml:space="preserve">
<path fill="#555555" opacity="1.000000" stroke="none" 
	d="
M76.000000,100.000000 
	C71.310745,100.000000 66.621490,100.000000 61.269875,99.608879 
	C41.525555,99.217758 22.443588,99.217758 3.288551,99.217758 
	C3.288551,72.747253 3.288551,47.040180 3.288551,21.292969 
	C40.277077,21.292969 76.976288,21.292969 113.690819,21.292969 
	C113.690819,47.294403 113.690819,73.001633 113.690819,99.000023 
	C102.419815,99.000023 91.455360,98.962044 80.491814,99.044411 
	C78.992233,99.055672 77.497162,99.666672 76.000000,100.000000 
z"/>
<path fill="#FFFFFF" opacity="1.000000" stroke="none" 
	d="
M76.468658,100.000000 
	C77.497162,99.666672 78.992233,99.055672 80.491814,99.044411 
	C91.455360,98.962044 102.419815,99.000023 113.690819,99.000023 
	C113.690819,73.001633 113.690819,47.294403 113.690819,21.292969 
	C76.976288,21.292969 40.277077,21.292969 3.288551,21.292969 
	C3.288551,47.040180 3.288551,72.747253 3.288551,99.217758 
	C22.443588,99.217758 41.525555,99.217758 60.803761,99.608879 
	C41.021099,100.000000 21.042194,100.000000 1.031646,100.000000 
	C1.031646,67.055931 1.031646,34.111832 1.031646,1.083863 
	C39.569809,1.083863 78.139854,1.083863 116.854950,1.083863 
	C116.854950,33.999573 116.854950,66.999687 116.854950,100.000000 
	C103.575806,100.000000 90.256561,100.000000 76.468658,100.000000 
z"/>
</svg>